<mxfile host="app.diagrams.net" modified="2023-11-15T20:51:46.736Z" agent="Mozilla/5.0 (X11; Linux x86_64) AppleWebKit/537.36 (KHTML, like Gecko) Chrome/119.0.0.0 Safari/537.36" etag="oVd8VeqNNJ3NuW-aNrmC" version="22.1.2" type="device">
  <diagram name="Page-1" id="sA-rXXzy8Fwfn1bQ2yVj">
    <mxGraphModel dx="819" dy="456" grid="1" gridSize="10" guides="1" tooltips="1" connect="1" arrows="1" fold="1" page="1" pageScale="1" pageWidth="850" pageHeight="1100" math="0" shadow="0">
      <root>
        <mxCell id="0" />
        <mxCell id="1" parent="0" />
        <mxCell id="yGgwCowXRZ4tts79y7Ys-1" value="&lt;b&gt;Locking&lt;/b&gt;" style="rounded=1;whiteSpace=wrap;html=1;fillColor=#f5f5f5;strokeColor=#666666;fontColor=#333333;dashed=1;dashPattern=1 2;strokeWidth=1;" vertex="1" parent="1">
          <mxGeometry x="360" y="470" width="120" height="40" as="geometry" />
        </mxCell>
        <mxCell id="yGgwCowXRZ4tts79y7Ys-15" style="edgeStyle=orthogonalEdgeStyle;rounded=0;orthogonalLoop=1;jettySize=auto;html=1;exitX=1;exitY=0.5;exitDx=0;exitDy=0;endArrow=circle;endFill=0;" edge="1" parent="1">
          <mxGeometry relative="1" as="geometry">
            <mxPoint x="328" y="540" as="targetPoint" />
            <mxPoint x="281" y="540" as="sourcePoint" />
          </mxGeometry>
        </mxCell>
        <mxCell id="yGgwCowXRZ4tts79y7Ys-3" value="&lt;b&gt;Buyer&lt;br&gt;&lt;/b&gt;" style="rounded=1;whiteSpace=wrap;html=1;fillColor=#f5f5f5;strokeColor=#666666;fontColor=#333333;" vertex="1" parent="1">
          <mxGeometry x="160" y="520" width="120" height="40" as="geometry" />
        </mxCell>
        <mxCell id="yGgwCowXRZ4tts79y7Ys-4" style="edgeStyle=orthogonalEdgeStyle;rounded=0;orthogonalLoop=1;jettySize=auto;html=1;exitX=1;exitY=0.5;exitDx=0;exitDy=0;entryX=0;entryY=0.5;entryDx=0;entryDy=0;endArrow=classicThin;endFill=1;" edge="1" parent="1" source="yGgwCowXRZ4tts79y7Ys-7">
          <mxGeometry relative="1" as="geometry">
            <mxPoint x="400" y="540" as="targetPoint" />
            <Array as="points">
              <mxPoint x="380" y="540" />
              <mxPoint x="380" y="540" />
            </Array>
          </mxGeometry>
        </mxCell>
        <mxCell id="yGgwCowXRZ4tts79y7Ys-6" style="edgeStyle=orthogonalEdgeStyle;rounded=0;orthogonalLoop=1;jettySize=auto;html=1;exitX=1;exitY=0.5;exitDx=0;exitDy=0;endArrow=circle;endFill=0;" edge="1" parent="1" source="yGgwCowXRZ4tts79y7Ys-7">
          <mxGeometry relative="1" as="geometry">
            <mxPoint x="528" y="539.71" as="targetPoint" />
            <mxPoint x="448" y="539.71" as="sourcePoint" />
          </mxGeometry>
        </mxCell>
        <mxCell id="yGgwCowXRZ4tts79y7Ys-16" style="edgeStyle=orthogonalEdgeStyle;rounded=0;orthogonalLoop=1;jettySize=auto;html=1;exitX=0;exitY=0.5;exitDx=0;exitDy=0;endArrow=oval;endFill=1;" edge="1" parent="1">
          <mxGeometry relative="1" as="geometry">
            <mxPoint x="320" y="540" as="targetPoint" />
            <mxPoint x="370" y="540" as="sourcePoint" />
          </mxGeometry>
        </mxCell>
        <mxCell id="yGgwCowXRZ4tts79y7Ys-7" value="&lt;b&gt;Script&lt;/b&gt;" style="rounded=1;whiteSpace=wrap;html=1;" vertex="1" parent="1">
          <mxGeometry x="360" y="520" width="120" height="40" as="geometry" />
        </mxCell>
        <mxCell id="yGgwCowXRZ4tts79y7Ys-8" style="edgeStyle=orthogonalEdgeStyle;rounded=0;orthogonalLoop=1;jettySize=auto;html=1;exitX=0.5;exitY=1;exitDx=0;exitDy=0;" edge="1" parent="1" source="yGgwCowXRZ4tts79y7Ys-1" target="yGgwCowXRZ4tts79y7Ys-1">
          <mxGeometry relative="1" as="geometry" />
        </mxCell>
        <mxCell id="yGgwCowXRZ4tts79y7Ys-9" value="" style="endArrow=classic;html=1;rounded=0;dashed=1;" edge="1" parent="1">
          <mxGeometry width="50" height="50" relative="1" as="geometry">
            <mxPoint x="190" y="440" as="sourcePoint" />
            <mxPoint x="525" y="440" as="targetPoint" />
          </mxGeometry>
        </mxCell>
        <mxCell id="yGgwCowXRZ4tts79y7Ys-10" value="" style="sketch=0;pointerEvents=1;shadow=0;dashed=0;html=1;strokeColor=none;fillColor=#505050;labelPosition=center;verticalLabelPosition=bottom;verticalAlign=top;outlineConnect=0;align=center;shape=mxgraph.office.concepts.clock;" vertex="1" parent="1">
          <mxGeometry x="160" y="430" width="20" height="20" as="geometry" />
        </mxCell>
        <mxCell id="yGgwCowXRZ4tts79y7Ys-11" value="-100ADA" style="rounded=1;whiteSpace=wrap;html=1;dashed=1;dashPattern=1 1;strokeWidth=1;" vertex="1" parent="1">
          <mxGeometry x="160" y="570" width="120" height="40" as="geometry" />
        </mxCell>
        <mxCell id="yGgwCowXRZ4tts79y7Ys-12" value="+100 ADA" style="rounded=1;whiteSpace=wrap;html=1;dashed=1;dashPattern=1 1;strokeWidth=1;" vertex="1" parent="1">
          <mxGeometry x="360" y="620" width="120" height="40" as="geometry" />
        </mxCell>
        <mxCell id="yGgwCowXRZ4tts79y7Ys-13" value="50 ADA" style="rounded=1;whiteSpace=wrap;html=1;dashed=1;dashPattern=1 1;strokeWidth=1;" vertex="1" parent="1">
          <mxGeometry x="360" y="570" width="120" height="40" as="geometry" />
        </mxCell>
      </root>
    </mxGraphModel>
  </diagram>
</mxfile>
